<svg width="670" height="166" viewBox="0 0 670 166" fill="none" xmlns="http://www.w3.org/2000/svg">
<g filter="url(#filter0_d_1_26)">
<mask id="path-1-outside-1_1_26" maskUnits="userSpaceOnUse" x="3.04706" y="0.359985" width="663" height="159" fill="black">
<rect fill="white" x="3.04706" y="0.359985" width="663" height="159"/>
<path d="M7.05706 153.36L71.3171 6.35998H120.037L184.297 153.36H133.057L85.5971 29.88H104.917L57.4571 153.36H7.05706ZM45.2771 127.74L57.8771 92.04H125.497L138.097 127.74H45.2771ZM192.207 153.36V6.35998H260.877C283.417 6.35998 300.567 11.33 312.327 21.27C324.087 31.21 329.967 44.72 329.967 61.8C329.967 73.14 327.237 82.94 321.777 91.2C316.317 99.32 308.547 105.55 298.467 109.89C288.527 114.23 276.697 116.4 262.977 116.4H219.717L241.767 96.03V153.36H192.207ZM280.197 153.36L244.077 99.81H296.577L333.117 153.36H280.197ZM241.767 101.49L219.717 79.02H259.827C266.687 79.02 271.727 77.48 274.947 74.4C278.307 71.32 279.987 67.12 279.987 61.8C279.987 56.48 278.307 52.28 274.947 49.2C271.727 46.12 266.687 44.58 259.827 44.58H219.717L241.767 22.11V101.49ZM424.701 156.72C412.941 156.72 402.021 154.9 391.941 151.26C382.001 147.48 373.321 142.16 365.901 135.3C358.621 128.44 352.951 120.32 348.891 110.94C344.831 101.56 342.801 91.2 342.801 79.86C342.801 68.52 344.831 58.16 348.891 48.78C352.951 39.4 358.621 31.28 365.901 24.42C373.321 17.56 382.001 12.31 391.941 8.66998C402.021 4.88998 412.941 2.99998 424.701 2.99998C439.121 2.99998 451.861 5.51998 462.921 10.56C474.121 15.6 483.361 22.88 490.641 32.4L459.351 60.33C455.011 54.87 450.181 50.67 444.861 47.73C439.681 44.65 433.801 43.11 427.221 43.11C422.041 43.11 417.351 43.95 413.151 45.63C408.951 47.31 405.311 49.76 402.231 52.98C399.291 56.2 396.981 60.12 395.301 64.74C393.621 69.22 392.781 74.26 392.781 79.86C392.781 85.46 393.621 90.57 395.301 95.19C396.981 99.67 399.291 103.52 402.231 106.74C405.311 109.96 408.951 112.41 413.151 114.09C417.351 115.77 422.041 116.61 427.221 116.61C433.801 116.61 439.681 115.14 444.861 112.2C450.181 109.12 455.011 104.85 459.351 99.39L490.641 127.32C483.361 136.7 474.121 143.98 462.921 149.16C451.861 154.2 439.121 156.72 424.701 156.72ZM485.504 153.36L549.764 6.35998H598.484L662.744 153.36H611.504L564.044 29.88H583.364L535.904 153.36H485.504ZM523.724 127.74L536.324 92.04H603.944L616.544 127.74H523.724Z"/>
</mask>
<path d="M7.05706 153.36L71.3171 6.35998H120.037L184.297 153.36H133.057L85.5971 29.88H104.917L57.4571 153.36H7.05706ZM45.2771 127.74L57.8771 92.04H125.497L138.097 127.74H45.2771ZM192.207 153.36V6.35998H260.877C283.417 6.35998 300.567 11.33 312.327 21.27C324.087 31.21 329.967 44.72 329.967 61.8C329.967 73.14 327.237 82.94 321.777 91.2C316.317 99.32 308.547 105.55 298.467 109.89C288.527 114.23 276.697 116.4 262.977 116.4H219.717L241.767 96.03V153.36H192.207ZM280.197 153.36L244.077 99.81H296.577L333.117 153.36H280.197ZM241.767 101.49L219.717 79.02H259.827C266.687 79.02 271.727 77.48 274.947 74.4C278.307 71.32 279.987 67.12 279.987 61.8C279.987 56.48 278.307 52.28 274.947 49.2C271.727 46.12 266.687 44.58 259.827 44.58H219.717L241.767 22.11V101.49ZM424.701 156.72C412.941 156.72 402.021 154.9 391.941 151.26C382.001 147.48 373.321 142.16 365.901 135.3C358.621 128.44 352.951 120.32 348.891 110.94C344.831 101.56 342.801 91.2 342.801 79.86C342.801 68.52 344.831 58.16 348.891 48.78C352.951 39.4 358.621 31.28 365.901 24.42C373.321 17.56 382.001 12.31 391.941 8.66998C402.021 4.88998 412.941 2.99998 424.701 2.99998C439.121 2.99998 451.861 5.51998 462.921 10.56C474.121 15.6 483.361 22.88 490.641 32.4L459.351 60.33C455.011 54.87 450.181 50.67 444.861 47.73C439.681 44.65 433.801 43.11 427.221 43.11C422.041 43.11 417.351 43.95 413.151 45.63C408.951 47.31 405.311 49.76 402.231 52.98C399.291 56.2 396.981 60.12 395.301 64.74C393.621 69.22 392.781 74.26 392.781 79.86C392.781 85.46 393.621 90.57 395.301 95.19C396.981 99.67 399.291 103.52 402.231 106.74C405.311 109.96 408.951 112.41 413.151 114.09C417.351 115.77 422.041 116.61 427.221 116.61C433.801 116.61 439.681 115.14 444.861 112.2C450.181 109.12 455.011 104.85 459.351 99.39L490.641 127.32C483.361 136.7 474.121 143.98 462.921 149.16C451.861 154.2 439.121 156.72 424.701 156.72ZM485.504 153.36L549.764 6.35998H598.484L662.744 153.36H611.504L564.044 29.88H583.364L535.904 153.36H485.504ZM523.724 127.74L536.324 92.04H603.944L616.544 127.74H523.724Z" fill="url(#paint0_linear_1_26)"/>
<path d="M7.05706 153.36L5.2245 152.559L4.00003 155.36H7.05706V153.36ZM71.3171 6.35997V4.35997H70.0086L69.4845 5.55888L71.3171 6.35997ZM120.037 6.35997L121.87 5.55888L121.346 4.35997H120.037V6.35997ZM184.297 153.36V155.36H187.354L186.13 152.559L184.297 153.36ZM133.057 153.36L131.19 154.078L131.683 155.36H133.057V153.36ZM85.5971 29.88V27.88H82.6857L83.7302 30.5975L85.5971 29.88ZM104.917 29.88L106.784 30.5975L107.828 27.88H104.917V29.88ZM57.4571 153.36V155.36H58.831L59.3239 154.078L57.4571 153.36ZM45.2771 127.74L43.3911 127.074L42.4503 129.74H45.2771V127.74ZM57.8771 92.04V90.04H56.462L55.9911 91.3743L57.8771 92.04ZM125.497 92.04L127.383 91.3743L126.912 90.04H125.497V92.04ZM138.097 127.74V129.74H140.924L139.983 127.074L138.097 127.74ZM7.05706 153.36L8.88961 154.161L73.1496 7.16106L71.3171 6.35997L69.4845 5.55888L5.2245 152.559L7.05706 153.36ZM71.3171 6.35997V8.35997H120.037V6.35997V4.35997H71.3171V6.35997ZM120.037 6.35997L118.205 7.16106L182.465 154.161L184.297 153.36L186.13 152.559L121.87 5.55888L120.037 6.35997ZM184.297 153.36V151.36H133.057V153.36V155.36H184.297V153.36ZM133.057 153.36L134.924 152.642L87.4639 29.1625L85.5971 29.88L83.7302 30.5975L131.19 154.078L133.057 153.36ZM85.5971 29.88V31.88H104.917V29.88V27.88H85.5971V29.88ZM104.917 29.88L103.05 29.1625L55.5902 152.642L57.4571 153.36L59.3239 154.078L106.784 30.5975L104.917 29.88ZM57.4571 153.36V151.36H7.05706V153.36V155.36H57.4571V153.36ZM45.2771 127.74L47.163 128.406L59.763 92.7056L57.8771 92.04L55.9911 91.3743L43.3911 127.074L45.2771 127.74ZM57.8771 92.04V94.04H125.497V92.04V90.04H57.8771V92.04ZM125.497 92.04L123.611 92.7056L136.211 128.406L138.097 127.74L139.983 127.074L127.383 91.3743L125.497 92.04ZM138.097 127.74V125.74H45.2771V127.74V129.74H138.097V127.74ZM192.207 153.36H190.207V155.36H192.207V153.36ZM192.207 6.35997V4.35997H190.207V6.35997H192.207ZM312.327 21.27L311.035 22.7974V22.7974L312.327 21.27ZM321.777 91.2L323.436 92.316L323.441 92.3094L323.445 92.3029L321.777 91.2ZM298.467 109.89L297.676 108.053L297.666 108.057L298.467 109.89ZM219.717 116.4L218.359 114.931L214.604 118.4H219.717V116.4ZM241.767 96.03H243.767V91.4596L240.409 94.5609L241.767 96.03ZM241.767 153.36V155.36H243.767V153.36H241.767ZM280.197 153.36L278.538 154.478L279.133 155.36H280.197V153.36ZM244.077 99.81V97.81H240.315L242.418 100.928L244.077 99.81ZM296.577 99.81L298.229 98.6827L297.633 97.81H296.577V99.81ZM333.117 153.36V155.36H336.902L334.769 152.233L333.117 153.36ZM241.767 101.49L240.339 102.891L243.767 106.384V101.49H241.767ZM219.717 79.02V77.02H214.952L218.289 80.4208L219.717 79.02ZM274.947 74.4L273.595 72.9257L273.579 72.94L273.564 72.9547L274.947 74.4ZM274.947 49.2L273.564 50.6453L273.579 50.6599L273.595 50.6743L274.947 49.2ZM219.717 44.58L218.289 43.1792L214.952 46.58H219.717V44.58ZM241.767 22.11H243.767V17.2164L240.339 20.7092L241.767 22.11ZM192.207 153.36H194.207V6.35997H192.207H190.207V153.36H192.207ZM192.207 6.35997V8.35997H260.877V6.35997V4.35997H192.207V6.35997ZM260.877 6.35997V8.35997C283.157 8.35997 299.771 13.2767 311.035 22.7974L312.327 21.27L313.618 19.7425C301.362 9.38322 283.676 4.35997 260.877 4.35997V6.35997ZM312.327 21.27L311.035 22.7974C322.293 32.313 327.967 45.2362 327.967 61.8H329.967H331.967C331.967 44.2038 325.88 30.1069 313.618 19.7425L312.327 21.27ZM329.967 61.8H327.967C327.967 72.8064 325.322 82.21 320.108 90.0971L321.777 91.2L323.445 92.3029C329.151 83.67 331.967 73.4736 331.967 61.8H329.967ZM321.777 91.2L320.117 90.084C314.897 97.8475 307.447 103.846 297.676 108.053L298.467 109.89L299.257 111.727C309.646 107.254 317.736 100.793 323.436 92.316L321.777 91.2ZM298.467 109.89L297.666 108.057C288.036 112.262 276.492 114.4 262.977 114.4V116.4V118.4C276.902 118.4 289.017 116.198 299.267 111.723L298.467 109.89ZM262.977 116.4V114.4H219.717V116.4V118.4H262.977V116.4ZM219.717 116.4L221.074 117.869L243.124 97.4991L241.767 96.03L240.409 94.5609L218.359 114.931L219.717 116.4ZM241.767 96.03H239.767V153.36H241.767H243.767V96.03H241.767ZM241.767 153.36V151.36H192.207V153.36V155.36H241.767V153.36ZM280.197 153.36L281.855 152.242L245.735 98.6916L244.077 99.81L242.418 100.928L278.538 154.478L280.197 153.36ZM244.077 99.81V101.81H296.577V99.81V97.81H244.077V99.81ZM296.577 99.81L294.924 100.937L331.464 154.487L333.117 153.36L334.769 152.233L298.229 98.6827L296.577 99.81ZM333.117 153.36V151.36H280.197V153.36V155.36H333.117V153.36ZM241.767 101.49L243.194 100.089L221.144 77.6192L219.717 79.02L218.289 80.4208L240.339 102.891L241.767 101.49ZM219.717 79.02V81.02H259.827V79.02V77.02H219.717V79.02ZM259.827 79.02V81.02C266.932 81.02 272.579 79.4321 276.329 75.8453L274.947 74.4L273.564 72.9547C270.874 75.5279 266.441 77.02 259.827 77.02V79.02ZM274.947 74.4L276.298 75.8743C280.141 72.3513 281.987 67.578 281.987 61.8H279.987H277.987C277.987 66.662 276.472 70.2887 273.595 72.9257L274.947 74.4ZM279.987 61.8H281.987C281.987 56.022 280.141 51.2487 276.298 47.7257L274.947 49.2L273.595 50.6743C276.472 53.3113 277.987 56.938 277.987 61.8H279.987ZM274.947 49.2L276.329 47.7547C272.579 44.1679 266.932 42.58 259.827 42.58V44.58V46.58C266.441 46.58 270.874 48.0721 273.564 50.6453L274.947 49.2ZM259.827 44.58V42.58H219.717V44.58V46.58H259.827V44.58ZM219.717 44.58L221.144 45.9808L243.194 23.5108L241.767 22.11L240.339 20.7092L218.289 43.1792L219.717 44.58ZM241.767 22.11H239.767V101.49H241.767H243.767V22.11H241.767ZM391.941 151.26L391.23 153.129L391.246 153.135L391.262 153.141L391.941 151.26ZM365.901 135.3L364.53 136.756L364.536 136.762L364.543 136.769L365.901 135.3ZM348.891 110.94L347.056 111.734V111.734L348.891 110.94ZM348.891 48.78L347.056 47.9855V47.9855L348.891 48.78ZM365.901 24.42L364.543 22.9514L364.536 22.9579L364.53 22.9644L365.901 24.42ZM391.941 8.66998L392.629 10.548L392.636 10.5454L392.643 10.5426L391.941 8.66998ZM462.921 10.56L462.092 12.3799L462.1 12.3838L462.921 10.56ZM490.641 32.4L491.973 33.892L493.356 32.6576L492.23 31.1851L490.641 32.4ZM459.351 60.33L457.785 61.5745L459.103 63.2322L460.683 61.822L459.351 60.33ZM444.861 47.73L443.839 49.4491L443.866 49.4652L443.894 49.4805L444.861 47.73ZM413.151 45.63L413.894 47.4869V47.4869L413.151 45.63ZM402.231 52.98L400.786 51.5975L400.77 51.6143L400.754 51.6314L402.231 52.98ZM395.301 64.74L397.174 65.4422L397.177 65.4329L397.181 65.4235L395.301 64.74ZM395.301 95.19L393.422 95.8735L393.425 95.8829L393.428 95.8922L395.301 95.19ZM402.231 106.74L400.754 108.089L400.77 108.106L400.786 108.122L402.231 106.74ZM413.151 114.09L412.408 115.947H412.408L413.151 114.09ZM444.861 112.2L445.848 113.939L445.856 113.935L445.863 113.931L444.861 112.2ZM459.351 99.39L460.683 97.8979L459.103 96.4878L457.785 98.1455L459.351 99.39ZM490.641 127.32L492.221 128.546L493.366 127.071L491.973 125.828L490.641 127.32ZM462.921 149.16L463.75 150.98L463.761 150.975L462.921 149.16ZM424.701 156.72V154.72C413.15 154.72 402.462 152.933 392.62 149.379L391.941 151.26L391.262 153.141C401.58 156.867 412.732 158.72 424.701 158.72V156.72ZM391.941 151.26L392.652 149.391C382.939 145.697 374.481 140.509 367.259 133.831L365.901 135.3L364.543 136.769C372.161 143.811 381.064 149.263 391.23 153.129L391.941 151.26ZM365.901 135.3L367.273 133.844C360.195 127.175 354.681 119.281 350.727 110.146L348.891 110.94L347.056 111.734C351.221 121.358 357.047 129.705 364.53 136.756L365.901 135.3ZM348.891 110.94L350.727 110.146C346.786 101.042 344.801 90.9567 344.801 79.86H342.801H340.801C340.801 91.4432 342.876 102.077 347.056 111.734L348.891 110.94ZM342.801 79.86H344.801C344.801 68.7632 346.786 58.6775 350.727 49.5744L348.891 48.78L347.056 47.9855C342.876 57.6425 340.801 68.2767 340.801 79.86H342.801ZM348.891 48.78L350.727 49.5744C354.681 40.4385 360.195 32.5449 367.273 25.8756L365.901 24.42L364.53 22.9644C357.047 30.0151 351.221 38.3615 347.056 47.9855L348.891 48.78ZM365.901 24.42L367.259 25.8885C374.476 19.2164 382.925 14.1015 392.629 10.548L391.941 8.66998L391.253 6.79195C381.077 10.5184 372.167 15.9035 364.543 22.9514L365.901 24.42ZM391.941 8.66998L392.643 10.5426C402.479 6.85429 413.159 4.99998 424.701 4.99998V2.99998V0.999985C412.723 0.999985 401.563 2.92566 391.239 6.79732L391.941 8.66998ZM424.701 2.99998V4.99998C438.888 4.99998 451.336 7.47864 462.092 12.3799L462.921 10.56L463.75 8.74004C452.386 3.56134 439.355 0.999985 424.701 0.999985V2.99998ZM462.921 10.56L462.1 12.3838C473.006 17.2912 481.979 24.3651 489.052 33.6149L490.641 32.4L492.23 31.1851C484.743 21.3948 475.237 13.9088 463.742 8.73615L462.921 10.56ZM490.641 32.4L489.309 30.9079L458.019 58.8379L459.351 60.33L460.683 61.822L491.973 33.892L490.641 32.4ZM459.351 60.33L460.917 59.0855C456.437 53.4492 451.411 49.0645 445.828 45.9795L444.861 47.73L443.894 49.4805C448.951 52.2755 453.586 56.2907 457.785 61.5745L459.351 60.33ZM444.861 47.73L445.883 46.0109C440.366 42.7304 434.127 41.11 427.221 41.11V43.11V45.11C433.475 45.11 438.996 46.5696 443.839 49.4491L444.861 47.73ZM427.221 43.11V41.11C421.823 41.11 416.876 41.9858 412.408 43.773L413.151 45.63L413.894 47.4869C417.826 45.9141 422.259 45.11 427.221 45.11V43.11ZM413.151 45.63L412.408 43.773C407.947 45.5575 404.066 48.1678 400.786 51.5975L402.231 52.98L403.676 54.3624C406.556 51.3522 409.955 49.0624 413.894 47.4869L413.151 45.63ZM402.231 52.98L400.754 51.6314C397.617 55.0678 395.18 59.2218 393.422 64.0565L395.301 64.74L397.181 65.4235C398.783 61.0181 400.966 57.3322 403.708 54.3285L402.231 52.98ZM395.301 64.74L393.428 64.0377C391.651 68.777 390.781 74.0603 390.781 79.86H392.781H394.781C394.781 74.4597 395.591 69.663 397.174 65.4422L395.301 64.74ZM392.781 79.86H390.781C390.781 85.661 391.652 91.0062 393.422 95.8735L395.301 95.19L397.181 94.5065C395.591 90.1338 394.781 85.2589 394.781 79.86H392.781ZM395.301 95.19L393.428 95.8922C395.189 100.588 397.626 104.663 400.754 108.089L402.231 106.74L403.708 105.391C400.956 102.377 398.773 98.7523 397.174 94.4877L395.301 95.19ZM402.231 106.74L400.786 108.122C404.066 111.552 407.947 114.162 412.408 115.947L413.151 114.09L413.894 112.233C409.955 110.658 406.556 108.368 403.676 105.358L402.231 106.74ZM413.151 114.09L412.408 115.947C416.876 117.734 421.823 118.61 427.221 118.61V116.61V114.61C422.259 114.61 417.826 113.806 413.894 112.233L413.151 114.09ZM427.221 116.61V118.61C434.11 118.61 440.337 117.068 445.848 113.939L444.861 112.2L443.874 110.461C439.026 113.212 433.492 114.61 427.221 114.61V116.61ZM444.861 112.2L445.863 113.931C451.427 110.71 456.442 106.264 460.917 100.634L459.351 99.39L457.785 98.1455C453.58 103.436 448.935 107.53 443.859 110.469L444.861 112.2ZM459.351 99.39L458.019 100.882L489.309 128.812L490.641 127.32L491.973 125.828L460.683 97.8979L459.351 99.39ZM490.641 127.32L489.061 126.094C481.985 135.211 473.003 142.294 462.082 147.345L462.921 149.16L463.761 150.975C475.239 145.666 484.737 138.189 492.221 128.546L490.641 127.32ZM462.921 149.16L462.092 147.34C451.336 152.241 438.888 154.72 424.701 154.72V156.72V158.72C439.355 158.72 452.386 156.159 463.75 150.98L462.921 149.16ZM485.504 153.36L483.672 152.559L482.447 155.36H485.504V153.36ZM549.764 6.35997V4.35997H548.456L547.932 5.55888L549.764 6.35997ZM598.484 6.35997L600.317 5.55888L599.793 4.35997H598.484V6.35997ZM662.744 153.36V155.36H665.801L664.577 152.559L662.744 153.36ZM611.504 153.36L609.637 154.078L610.13 155.36H611.504V153.36ZM564.044 29.88V27.88H561.133L562.177 30.5975L564.044 29.88ZM583.364 29.88L585.231 30.5975L586.276 27.88H583.364V29.88ZM535.904 153.36V155.36H537.278L537.771 154.078L535.904 153.36ZM523.724 127.74L521.838 127.074L520.898 129.74H523.724V127.74ZM536.324 92.04V90.04H534.909L534.438 91.3743L536.324 92.04ZM603.944 92.04L605.83 91.3743L605.359 90.04H603.944V92.04ZM616.544 127.74V129.74H619.371L618.43 127.074L616.544 127.74ZM485.504 153.36L487.337 154.161L551.597 7.16106L549.764 6.35997L547.932 5.55888L483.672 152.559L485.504 153.36ZM549.764 6.35997V8.35997H598.484V6.35997V4.35997H549.764V6.35997ZM598.484 6.35997L596.652 7.16106L660.912 154.161L662.744 153.36L664.577 152.559L600.317 5.55888L598.484 6.35997ZM662.744 153.36V151.36H611.504V153.36V155.36H662.744V153.36ZM611.504 153.36L613.371 152.642L565.911 29.1625L564.044 29.88L562.177 30.5975L609.637 154.078L611.504 153.36ZM564.044 29.88V31.88H583.364V29.88V27.88H564.044V29.88ZM583.364 29.88L581.497 29.1625L534.037 152.642L535.904 153.36L537.771 154.078L585.231 30.5975L583.364 29.88ZM535.904 153.36V151.36H485.504V153.36V155.36H535.904V153.36ZM523.724 127.74L525.61 128.406L538.21 92.7056L536.324 92.04L534.438 91.3743L521.838 127.074L523.724 127.74ZM536.324 92.04V94.04H603.944V92.04V90.04H536.324V92.04ZM603.944 92.04L602.058 92.7056L614.658 128.406L616.544 127.74L618.43 127.074L605.83 91.3743L603.944 92.04ZM616.544 127.74V125.74H523.724V127.74V129.74H616.544V127.74Z" fill="#B093FE" mask="url(#path-1-outside-1_1_26)"/>
</g>
<defs>
<filter id="filter0_d_1_26" x="0" y="0" width="669.801" height="165.72" filterUnits="userSpaceOnUse" color-interpolation-filters="sRGB">
<feFlood flood-opacity="0" result="BackgroundImageFix"/>
<feColorMatrix in="SourceAlpha" type="matrix" values="0 0 0 0 0 0 0 0 0 0 0 0 0 0 0 0 0 0 127 0" result="hardAlpha"/>
<feOffset dy="3"/>
<feGaussianBlur stdDeviation="2"/>
<feComposite in2="hardAlpha" operator="out"/>
<feColorMatrix type="matrix" values="0 0 0 0 0 0 0 0 0 0 0 0 0 0 0 0 0 0 0.25 0"/>
<feBlend mode="normal" in2="BackgroundImageFix" result="effect1_dropShadow_1_26"/>
<feBlend mode="normal" in="SourceGraphic" in2="effect1_dropShadow_1_26" result="shape"/>
</filter>
<linearGradient id="paint0_linear_1_26" x1="11.0471" y1="78.36" x2="659.047" y2="78.36" gradientUnits="userSpaceOnUse">
<stop stop-color="#6D4AFF"/>
<stop offset="0.5" stop-color="#C9B4FF"/>
<stop offset="1" stop-color="#6D4AFF"/>
</linearGradient>
</defs>
</svg>
