<svg width="1061" height="378" viewBox="0 0 1061 378" fill="none" xmlns="http://www.w3.org/2000/svg">
<path d="M11.97 208.5V61.5H82.74C96.46 61.5 108.29 63.74 118.23 68.22C128.31 72.7 136.08 79.14 141.54 87.54C147 95.8 149.73 105.6 149.73 116.94C149.73 128.28 147 138.08 141.54 146.34C136.08 154.6 128.31 161.04 118.23 165.66C108.29 170.14 96.46 172.38 82.74 172.38H39.48L61.53 151.17V208.5H11.97ZM61.53 156.63L39.48 134.16H79.59C86.45 134.16 91.49 132.62 94.71 129.54C98.07 126.46 99.75 122.26 99.75 116.94C99.75 111.62 98.07 107.42 94.71 104.34C91.49 101.26 86.45 99.72 79.59 99.72H39.48L61.53 77.25V156.63ZM165.984 208.5V61.5H234.654C257.194 61.5 274.344 66.47 286.104 76.41C297.864 86.35 303.744 99.86 303.744 116.94C303.744 128.28 301.014 138.08 295.554 146.34C290.094 154.46 282.324 160.69 272.244 165.03C262.304 169.37 250.474 171.54 236.754 171.54H193.494L215.544 151.17V208.5H165.984ZM253.974 208.5L217.854 154.95H270.354L306.894 208.5H253.974ZM215.544 156.63L193.494 134.16H233.604C240.464 134.16 245.504 132.62 248.724 129.54C252.084 126.46 253.764 122.26 253.764 116.94C253.764 111.62 252.084 107.42 248.724 104.34C245.504 101.26 240.464 99.72 233.604 99.72H193.494L215.544 77.25V156.63ZM399.528 211.86C387.628 211.86 376.568 209.97 366.348 206.19C356.268 202.41 347.518 197.09 340.098 190.23C332.678 183.23 326.868 175.04 322.668 165.66C318.608 156.28 316.578 146.06 316.578 135C316.578 123.8 318.608 113.58 322.668 104.34C326.868 94.96 332.678 86.84 340.098 79.98C347.518 72.98 356.268 67.59 366.348 63.81C376.568 60.03 387.628 58.14 399.528 58.14C411.568 58.14 422.628 60.03 432.708 63.81C442.788 67.59 451.538 72.98 458.958 79.98C466.378 86.84 472.118 94.96 476.178 104.34C480.378 113.58 482.478 123.8 482.478 135C482.478 146.06 480.378 156.28 476.178 165.66C472.118 175.04 466.378 183.23 458.958 190.23C451.538 197.09 442.788 202.41 432.708 206.19C422.628 209.97 411.568 211.86 399.528 211.86ZM399.528 171.75C404.148 171.75 408.418 170.91 412.338 169.23C416.398 167.55 419.898 165.17 422.838 162.09C425.918 158.87 428.298 155.02 429.978 150.54C431.658 145.92 432.498 140.74 432.498 135C432.498 129.26 431.658 124.15 429.978 119.67C428.298 115.05 425.918 111.2 422.838 108.12C419.898 104.9 416.398 102.45 412.338 100.77C408.418 99.09 404.148 98.25 399.528 98.25C394.908 98.25 390.568 99.09 386.508 100.77C382.588 102.45 379.088 104.9 376.008 108.12C373.068 111.2 370.758 115.05 369.078 119.67C367.398 124.15 366.558 129.26 366.558 135C366.558 140.74 367.398 145.92 369.078 150.54C370.758 155.02 373.068 158.87 376.008 162.09C379.088 165.17 382.588 167.55 386.508 169.23C390.568 170.91 394.908 171.75 399.528 171.75ZM534.56 211.86C523.08 211.86 512.72 210.04 503.48 206.4C494.24 202.62 486.54 197.16 480.38 190.02L507.05 158.52C510.97 163.28 514.82 166.92 518.6 169.44C522.38 171.82 526.3 173.01 530.36 173.01C541 173.01 546.32 166.92 546.32 154.74V98.88H496.34V61.5H595.25V151.8C595.25 171.96 590.07 187.01 579.71 196.95C569.35 206.89 554.3 211.86 534.56 211.86ZM617.976 208.5V61.5H737.466V98.88H666.696V171.12H740.196V208.5H617.976ZM663.336 151.8V116.1H728.856V151.8H663.336ZM791.195 208.5V99.93H748.145V61.5H883.805V99.93H840.755V208.5H791.195ZM971.696 211.86C959.796 211.86 948.736 209.97 938.516 206.19C928.436 202.41 919.686 197.09 912.266 190.23C904.846 183.23 899.036 175.04 894.836 165.66C890.776 156.28 888.746 146.06 888.746 135C888.746 123.8 890.776 113.58 894.836 104.34C899.036 94.96 904.846 86.84 912.266 79.98C919.686 72.98 928.436 67.59 938.516 63.81C948.736 60.03 959.796 58.14 971.696 58.14C983.736 58.14 994.796 60.03 1004.88 63.81C1014.96 67.59 1023.71 72.98 1031.13 79.98C1038.55 86.84 1044.29 94.96 1048.35 104.34C1052.55 113.58 1054.65 123.8 1054.65 135C1054.65 146.06 1052.55 156.28 1048.35 165.66C1044.29 175.04 1038.55 183.23 1031.13 190.23C1023.71 197.09 1014.96 202.41 1004.88 206.19C994.796 209.97 983.736 211.86 971.696 211.86ZM971.696 171.75C976.316 171.75 980.586 170.91 984.506 169.23C988.566 167.55 992.066 165.17 995.006 162.09C998.086 158.87 1000.47 155.02 1002.15 150.54C1003.83 145.92 1004.67 140.74 1004.67 135C1004.67 129.26 1003.83 124.15 1002.15 119.67C1000.47 115.05 998.086 111.2 995.006 108.12C992.066 104.9 988.566 102.45 984.506 100.77C980.586 99.09 976.316 98.25 971.696 98.25C967.076 98.25 962.736 99.09 958.676 100.77C954.756 102.45 951.256 104.9 948.176 108.12C945.236 111.2 942.926 115.05 941.246 119.67C939.566 124.15 938.726 129.26 938.726 135C938.726 140.74 939.566 145.92 941.246 150.54C942.926 155.02 945.236 158.87 948.176 162.09C951.256 165.17 954.756 167.55 958.676 169.23C962.736 170.91 967.076 171.75 971.696 171.75Z" fill="url(#paint0_linear_392_2405)"/>
<g filter="url(#filter0_d_392_2405)">
<mask id="path-2-outside-1_392_2405" maskUnits="userSpaceOnUse" x="199.5" y="212.5" width="662" height="159" fill="black">
<rect fill="white" x="199.5" y="212.5" width="662" height="159"/>
<path d="M202.692 365.5L266.952 218.5H315.672L379.932 365.5H328.692L281.232 242.02H300.552L253.092 365.5H202.692ZM240.912 339.88L253.512 304.18H321.132L333.732 339.88H240.912ZM387.841 365.5V218.5H456.511C479.051 218.5 496.201 223.47 507.961 233.41C519.721 243.35 525.601 256.86 525.601 273.94C525.601 285.28 522.871 295.08 517.411 303.34C511.951 311.46 504.181 317.69 494.101 322.03C484.161 326.37 472.331 328.54 458.611 328.54H415.351L437.401 308.17V365.5H387.841ZM475.831 365.5L439.711 311.95H492.211L528.751 365.5H475.831ZM437.401 313.63L415.351 291.16H455.461C462.321 291.16 467.361 289.62 470.581 286.54C473.941 283.46 475.621 279.26 475.621 273.94C475.621 268.62 473.941 264.42 470.581 261.34C467.361 258.26 462.321 256.72 455.461 256.72H415.351L437.401 234.25V313.63ZM620.336 368.86C608.576 368.86 597.656 367.04 587.576 363.4C577.636 359.62 568.956 354.3 561.536 347.44C554.256 340.58 548.586 332.46 544.526 323.08C540.466 313.7 538.436 303.34 538.436 292C538.436 280.66 540.466 270.3 544.526 260.92C548.586 251.54 554.256 243.42 561.536 236.56C568.956 229.7 577.636 224.45 587.576 220.81C597.656 217.03 608.576 215.14 620.336 215.14C634.756 215.14 647.496 217.66 658.556 222.7C669.756 227.74 678.996 235.02 686.276 244.54L654.986 272.47C650.646 267.01 645.816 262.81 640.496 259.87C635.316 256.79 629.436 255.25 622.856 255.25C617.676 255.25 612.986 256.09 608.786 257.77C604.586 259.45 600.946 261.9 597.866 265.12C594.926 268.34 592.616 272.26 590.936 276.88C589.256 281.36 588.416 286.4 588.416 292C588.416 297.6 589.256 302.71 590.936 307.33C592.616 311.81 594.926 315.66 597.866 318.88C600.946 322.1 604.586 324.55 608.786 326.23C612.986 327.91 617.676 328.75 622.856 328.75C629.436 328.75 635.316 327.28 640.496 324.34C645.816 321.26 650.646 316.99 654.986 311.53L686.276 339.46C678.996 348.84 669.756 356.12 658.556 361.3C647.496 366.34 634.756 368.86 620.336 368.86ZM681.139 365.5L745.399 218.5H794.119L858.379 365.5H807.139L759.679 242.02H778.999L731.539 365.5H681.139ZM719.359 339.88L731.959 304.18H799.579L812.179 339.88H719.359Z"/>
</mask>
<path d="M202.692 365.5L266.952 218.5H315.672L379.932 365.5H328.692L281.232 242.02H300.552L253.092 365.5H202.692ZM240.912 339.88L253.512 304.18H321.132L333.732 339.88H240.912ZM387.841 365.5V218.5H456.511C479.051 218.5 496.201 223.47 507.961 233.41C519.721 243.35 525.601 256.86 525.601 273.94C525.601 285.28 522.871 295.08 517.411 303.34C511.951 311.46 504.181 317.69 494.101 322.03C484.161 326.37 472.331 328.54 458.611 328.54H415.351L437.401 308.17V365.5H387.841ZM475.831 365.5L439.711 311.95H492.211L528.751 365.5H475.831ZM437.401 313.63L415.351 291.16H455.461C462.321 291.16 467.361 289.62 470.581 286.54C473.941 283.46 475.621 279.26 475.621 273.94C475.621 268.62 473.941 264.42 470.581 261.34C467.361 258.26 462.321 256.72 455.461 256.72H415.351L437.401 234.25V313.63ZM620.336 368.86C608.576 368.86 597.656 367.04 587.576 363.4C577.636 359.62 568.956 354.3 561.536 347.44C554.256 340.58 548.586 332.46 544.526 323.08C540.466 313.7 538.436 303.34 538.436 292C538.436 280.66 540.466 270.3 544.526 260.92C548.586 251.54 554.256 243.42 561.536 236.56C568.956 229.7 577.636 224.45 587.576 220.81C597.656 217.03 608.576 215.14 620.336 215.14C634.756 215.14 647.496 217.66 658.556 222.7C669.756 227.74 678.996 235.02 686.276 244.54L654.986 272.47C650.646 267.01 645.816 262.81 640.496 259.87C635.316 256.79 629.436 255.25 622.856 255.25C617.676 255.25 612.986 256.09 608.786 257.77C604.586 259.45 600.946 261.9 597.866 265.12C594.926 268.34 592.616 272.26 590.936 276.88C589.256 281.36 588.416 286.4 588.416 292C588.416 297.6 589.256 302.71 590.936 307.33C592.616 311.81 594.926 315.66 597.866 318.88C600.946 322.1 604.586 324.55 608.786 326.23C612.986 327.91 617.676 328.75 622.856 328.75C629.436 328.75 635.316 327.28 640.496 324.34C645.816 321.26 650.646 316.99 654.986 311.53L686.276 339.46C678.996 348.84 669.756 356.12 658.556 361.3C647.496 366.34 634.756 368.86 620.336 368.86ZM681.139 365.5L745.399 218.5H794.119L858.379 365.5H807.139L759.679 242.02H778.999L731.539 365.5H681.139ZM719.359 339.88L731.959 304.18H799.579L812.179 339.88H719.359Z" fill="url(#paint1_linear_392_2405)"/>
<path d="M202.692 365.5L200.859 364.699L199.635 367.5H202.692V365.5ZM266.952 218.5V216.5H265.643L265.119 217.699L266.952 218.5ZM315.672 218.5L317.504 217.699L316.98 216.5H315.672V218.5ZM379.932 365.5V367.5H382.989L381.764 364.699L379.932 365.5ZM328.692 365.5L326.825 366.218L327.318 367.5H328.692V365.5ZM281.232 242.02V240.02H278.32L279.365 242.738L281.232 242.02ZM300.552 242.02L302.419 242.738L303.463 240.02H300.552V242.02ZM253.092 365.5V367.5H254.466L254.958 366.218L253.092 365.5ZM240.912 339.88L239.026 339.214L238.085 341.88H240.912V339.88ZM253.512 304.18V302.18H252.097L251.626 303.514L253.512 304.18ZM321.132 304.18L323.018 303.514L322.547 302.18H321.132V304.18ZM333.732 339.88V341.88H336.558L335.618 339.214L333.732 339.88ZM202.692 365.5L204.524 366.301L268.784 219.301L266.952 218.5L265.119 217.699L200.859 364.699L202.692 365.5ZM266.952 218.5V220.5H315.672V218.5V216.5H266.952V218.5ZM315.672 218.5L313.839 219.301L378.099 366.301L379.932 365.5L381.764 364.699L317.504 217.699L315.672 218.5ZM379.932 365.5V363.5H328.692V365.5V367.5H379.932V365.5ZM328.692 365.5L330.559 364.782L283.099 241.302L281.232 242.02L279.365 242.738L326.825 366.218L328.692 365.5ZM281.232 242.02V244.02H300.552V242.02V240.02H281.232V242.02ZM300.552 242.02L298.685 241.302L251.225 364.782L253.092 365.5L254.958 366.218L302.419 242.738L300.552 242.02ZM253.092 365.5V363.5H202.692V365.5V367.5H253.092V365.5ZM240.912 339.88L242.798 340.546L255.398 304.846L253.512 304.18L251.626 303.514L239.026 339.214L240.912 339.88ZM253.512 304.18V306.18H321.132V304.18V302.18H253.512V304.18ZM321.132 304.18L319.246 304.846L331.846 340.546L333.732 339.88L335.618 339.214L323.018 303.514L321.132 304.18ZM333.732 339.88V337.88H240.912V339.88V341.88H333.732V339.88ZM387.841 365.5H385.841V367.5H387.841V365.5ZM387.841 218.5V216.5H385.841V218.5H387.841ZM507.961 233.41L506.67 234.937V234.937L507.961 233.41ZM517.411 303.34L519.071 304.456L519.075 304.449L519.08 304.443L517.411 303.34ZM494.101 322.03L493.31 320.193L493.301 320.197L494.101 322.03ZM415.351 328.54L413.994 327.071L410.239 330.54H415.351V328.54ZM437.401 308.17H439.401V303.6L436.044 306.701L437.401 308.17ZM437.401 365.5V367.5H439.401V365.5H437.401ZM475.831 365.5L474.173 366.618L474.768 367.5H475.831V365.5ZM439.711 311.95V309.95H435.95L438.053 313.068L439.711 311.95ZM492.211 311.95L493.863 310.823L493.268 309.95H492.211V311.95ZM528.751 365.5V367.5H532.537L530.403 364.373L528.751 365.5ZM437.401 313.63L435.974 315.031L439.401 318.524V313.63H437.401ZM415.351 291.16V289.16H410.586L413.924 292.561L415.351 291.16ZM470.581 286.54L469.23 285.066L469.214 285.08L469.199 285.095L470.581 286.54ZM470.581 261.34L469.199 262.785L469.214 262.8L469.23 262.814L470.581 261.34ZM415.351 256.72L413.924 255.319L410.586 258.72H415.351V256.72ZM437.401 234.25H439.401V229.356L435.974 232.849L437.401 234.25ZM387.841 365.5H389.841V218.5H387.841H385.841V365.5H387.841ZM387.841 218.5V220.5H456.511V218.5V216.5H387.841V218.5ZM456.511 218.5V220.5C478.792 220.5 495.406 225.417 506.67 234.937L507.961 233.41L509.252 231.883C496.996 221.523 479.31 216.5 456.511 216.5V218.5ZM507.961 233.41L506.67 234.937C517.928 244.453 523.601 257.376 523.601 273.94H525.601H527.601C527.601 256.344 521.514 242.247 509.252 231.883L507.961 233.41ZM525.601 273.94H523.601C523.601 284.946 520.956 294.35 515.743 302.237L517.411 303.34L519.08 304.443C524.786 295.81 527.601 285.614 527.601 273.94H525.601ZM517.411 303.34L515.751 302.224C510.531 309.987 503.082 315.986 493.31 320.193L494.101 322.03L494.892 323.867C505.281 319.394 513.371 312.933 519.071 304.456L517.411 303.34ZM494.101 322.03L493.301 320.197C483.671 324.402 472.126 326.54 458.611 326.54V328.54V330.54C472.536 330.54 484.652 328.338 494.901 323.863L494.101 322.03ZM458.611 328.54V326.54H415.351V328.54V330.54H458.611V328.54ZM415.351 328.54L416.708 330.009L438.758 309.639L437.401 308.17L436.044 306.701L413.994 327.071L415.351 328.54ZM437.401 308.17H435.401V365.5H437.401H439.401V308.17H437.401ZM437.401 365.5V363.5H387.841V365.5V367.5H437.401V365.5ZM475.831 365.5L477.489 364.382L441.369 310.832L439.711 311.95L438.053 313.068L474.173 366.618L475.831 365.5ZM439.711 311.95V313.95H492.211V311.95V309.95H439.711V311.95ZM492.211 311.95L490.559 313.077L527.099 366.627L528.751 365.5L530.403 364.373L493.863 310.823L492.211 311.95ZM528.751 365.5V363.5H475.831V365.5V367.5H528.751V365.5ZM437.401 313.63L438.829 312.229L416.779 289.759L415.351 291.16L413.924 292.561L435.974 315.031L437.401 313.63ZM415.351 291.16V293.16H455.461V291.16V289.16H415.351V291.16ZM455.461 291.16V293.16C462.566 293.16 468.214 291.572 471.964 287.985L470.581 286.54L469.199 285.095C466.509 287.668 462.076 289.16 455.461 289.16V291.16ZM470.581 286.54L471.933 288.014C475.776 284.491 477.621 279.718 477.621 273.94H475.621H473.621C473.621 278.802 472.106 282.429 469.23 285.066L470.581 286.54ZM475.621 273.94H477.621C477.621 268.162 475.776 263.389 471.933 259.866L470.581 261.34L469.23 262.814C472.106 265.451 473.621 269.078 473.621 273.94H475.621ZM470.581 261.34L471.964 259.895C468.214 256.308 462.566 254.72 455.461 254.72V256.72V258.72C462.076 258.72 466.509 260.212 469.199 262.785L470.581 261.34ZM455.461 256.72V254.72H415.351V256.72V258.72H455.461V256.72ZM415.351 256.72L416.779 258.121L438.829 235.651L437.401 234.25L435.974 232.849L413.924 255.319L415.351 256.72ZM437.401 234.25H435.401V313.63H437.401H439.401V234.25H437.401ZM587.576 363.4L586.865 365.269L586.881 365.275L586.896 365.281L587.576 363.4ZM561.536 347.44L560.164 348.896L560.171 348.902L560.178 348.909L561.536 347.44ZM544.526 323.08L542.69 323.874V323.874L544.526 323.08ZM544.526 260.92L542.69 260.126V260.126L544.526 260.92ZM561.536 236.56L560.178 235.091L560.171 235.098L560.164 235.104L561.536 236.56ZM587.576 220.81L588.263 222.688L588.271 222.685L588.278 222.683L587.576 220.81ZM658.556 222.7L657.726 224.52L657.735 224.524L658.556 222.7ZM686.276 244.54L687.608 246.032L688.99 244.798L687.864 243.325L686.276 244.54ZM654.986 272.47L653.42 273.714L654.738 275.372L656.318 273.962L654.986 272.47ZM640.496 259.87L639.474 261.589L639.501 261.605L639.528 261.62L640.496 259.87ZM608.786 257.77L609.529 259.627V259.627L608.786 257.77ZM597.866 265.12L596.42 263.738L596.404 263.754L596.389 263.771L597.866 265.12ZM590.936 276.88L592.808 277.582L592.812 277.573L592.815 277.563L590.936 276.88ZM590.936 307.33L589.056 308.013L589.06 308.023L589.063 308.032L590.936 307.33ZM597.866 318.88L596.389 320.229L596.404 320.246L596.42 320.262L597.866 318.88ZM608.786 326.23L608.043 328.087H608.043L608.786 326.23ZM640.496 324.34L641.483 326.079L641.49 326.075L641.498 326.071L640.496 324.34ZM654.986 311.53L656.318 310.038L654.738 308.628L653.42 310.286L654.986 311.53ZM686.276 339.46L687.856 340.686L689 339.211L687.608 337.968L686.276 339.46ZM658.556 361.3L659.385 363.12L659.395 363.115L658.556 361.3ZM620.336 368.86V366.86C608.785 366.86 598.097 365.073 588.255 361.519L587.576 363.4L586.896 365.281C597.214 369.007 608.367 370.86 620.336 370.86V368.86ZM587.576 363.4L588.287 361.531C578.573 357.837 570.116 352.649 562.893 345.971L561.536 347.44L560.178 348.909C567.796 355.951 576.698 361.403 586.865 365.269L587.576 363.4ZM561.536 347.44L562.907 345.984C555.83 339.315 550.316 331.422 546.361 322.286L544.526 323.08L542.69 323.874C546.856 333.498 552.682 341.845 560.164 348.896L561.536 347.44ZM544.526 323.08L546.361 322.286C542.421 313.183 540.436 303.097 540.436 292H538.436H536.436C536.436 303.583 538.51 314.217 542.69 323.874L544.526 323.08ZM538.436 292H540.436C540.436 280.903 542.421 270.817 546.361 261.714L544.526 260.92L542.69 260.126C538.51 269.783 536.436 280.417 536.436 292H538.436ZM544.526 260.92L546.361 261.714C550.316 252.578 555.83 244.685 562.907 238.016L561.536 236.56L560.164 235.104C552.682 242.155 546.856 250.502 542.69 260.126L544.526 260.92ZM561.536 236.56L562.893 238.029C570.11 231.356 578.56 226.242 588.263 222.688L587.576 220.81L586.888 218.932C576.712 222.658 567.801 228.044 560.178 235.091L561.536 236.56ZM587.576 220.81L588.278 222.683C598.114 218.994 608.793 217.14 620.336 217.14V215.14V213.14C608.358 213.14 597.198 215.066 586.873 218.937L587.576 220.81ZM620.336 215.14V217.14C634.522 217.14 646.971 219.619 657.726 224.52L658.556 222.7L659.385 220.88C648.021 215.701 634.989 213.14 620.336 213.14V215.14ZM658.556 222.7L657.735 224.524C668.64 229.431 677.614 236.505 684.687 245.755L686.276 244.54L687.864 243.325C680.378 233.535 670.871 226.049 659.376 220.876L658.556 222.7ZM686.276 244.54L684.944 243.048L653.654 270.978L654.986 272.47L656.318 273.962L687.608 246.032L686.276 244.54ZM654.986 272.47L656.551 271.226C652.071 265.589 647.045 261.205 641.463 258.12L640.496 259.87L639.528 261.62C644.586 264.415 649.22 268.431 653.42 273.714L654.986 272.47ZM640.496 259.87L641.518 258.151C636.001 254.87 629.761 253.25 622.856 253.25V255.25V257.25C629.11 257.25 634.631 258.71 639.474 261.589L640.496 259.87ZM622.856 255.25V253.25C617.458 253.25 612.511 254.126 608.043 255.913L608.786 257.77L609.529 259.627C613.461 258.054 617.894 257.25 622.856 257.25V255.25ZM608.786 257.77L608.043 255.913C603.582 257.698 599.701 260.308 596.42 263.738L597.866 265.12L599.311 266.502C602.19 263.492 605.59 261.202 609.529 259.627L608.786 257.77ZM597.866 265.12L596.389 263.771C593.251 267.208 590.814 271.362 589.056 276.197L590.936 276.88L592.815 277.563C594.417 273.158 596.6 269.472 599.343 266.469L597.866 265.12ZM590.936 276.88L589.063 276.178C587.286 280.917 586.416 286.2 586.416 292H588.416H590.416C590.416 286.6 591.226 281.803 592.808 277.582L590.936 276.88ZM588.416 292H586.416C586.416 297.801 587.286 303.146 589.056 308.013L590.936 307.33L592.815 306.647C591.225 302.274 590.416 297.399 590.416 292H588.416ZM590.936 307.33L589.063 308.032C590.824 312.728 593.261 316.803 596.389 320.229L597.866 318.88L599.343 317.531C596.591 314.517 594.408 310.892 592.808 306.628L590.936 307.33ZM597.866 318.88L596.42 320.262C599.701 323.692 603.582 326.302 608.043 328.087L608.786 326.23L609.529 324.373C605.59 322.798 602.19 320.508 599.311 317.498L597.866 318.88ZM608.786 326.23L608.043 328.087C612.511 329.874 617.458 330.75 622.856 330.75V328.75V326.75C617.894 326.75 613.461 325.946 609.529 324.373L608.786 326.23ZM622.856 328.75V330.75C629.745 330.75 635.971 329.208 641.483 326.079L640.496 324.34L639.508 322.601C634.66 325.352 629.127 326.75 622.856 326.75V328.75ZM640.496 324.34L641.498 326.071C647.062 322.85 652.076 318.404 656.551 312.774L654.986 311.53L653.42 310.286C649.215 315.576 644.57 319.67 639.494 322.609L640.496 324.34ZM654.986 311.53L653.654 313.022L684.944 340.952L686.276 339.46L687.608 337.968L656.318 310.038L654.986 311.53ZM686.276 339.46L684.696 338.234C677.62 347.351 668.638 354.434 657.716 359.485L658.556 361.3L659.395 363.115C670.874 357.806 680.372 350.329 687.856 340.686L686.276 339.46ZM658.556 361.3L657.726 359.48C646.971 364.381 634.522 366.86 620.336 366.86V368.86V370.86C634.989 370.86 648.021 368.299 659.385 363.12L658.556 361.3ZM681.139 365.5L679.306 364.699L678.082 367.5H681.139V365.5ZM745.399 218.5V216.5H744.09L743.566 217.699L745.399 218.5ZM794.119 218.5L795.951 217.699L795.427 216.5H794.119V218.5ZM858.379 365.5V367.5H861.436L860.211 364.699L858.379 365.5ZM807.139 365.5L805.272 366.218L805.765 367.5H807.139V365.5ZM759.679 242.02V240.02H756.768L757.812 242.738L759.679 242.02ZM778.999 242.02L780.866 242.738L781.91 240.02H778.999V242.02ZM731.539 365.5V367.5H732.913L733.406 366.218L731.539 365.5ZM719.359 339.88L717.473 339.214L716.532 341.88H719.359V339.88ZM731.959 304.18V302.18H730.544L730.073 303.514L731.959 304.18ZM799.579 304.18L801.465 303.514L800.994 302.18H799.579V304.18ZM812.179 339.88V341.88H815.006L814.065 339.214L812.179 339.88ZM681.139 365.5L682.971 366.301L747.231 219.301L745.399 218.5L743.566 217.699L679.306 364.699L681.139 365.5ZM745.399 218.5V220.5H794.119V218.5V216.5H745.399V218.5ZM794.119 218.5L792.286 219.301L856.546 366.301L858.379 365.5L860.211 364.699L795.951 217.699L794.119 218.5ZM858.379 365.5V363.5H807.139V365.5V367.5H858.379V365.5ZM807.139 365.5L809.006 364.782L761.546 241.302L759.679 242.02L757.812 242.738L805.272 366.218L807.139 365.5ZM759.679 242.02V244.02H778.999V242.02V240.02H759.679V242.02ZM778.999 242.02L777.132 241.302L729.672 364.782L731.539 365.5L733.406 366.218L780.866 242.738L778.999 242.02ZM731.539 365.5V363.5H681.139V365.5V367.5H731.539V365.5ZM719.359 339.88L721.245 340.546L733.845 304.846L731.959 304.18L730.073 303.514L717.473 339.214L719.359 339.88ZM731.959 304.18V306.18H799.579V304.18V302.18H731.959V304.18ZM799.579 304.18L797.693 304.846L810.293 340.546L812.179 339.88L814.065 339.214L801.465 303.514L799.579 304.18ZM812.179 339.88V337.88H719.359V339.88V341.88H812.179V339.88Z" fill="#B093FE" mask="url(#path-2-outside-1_392_2405)"/>
</g>
<defs>
<filter id="filter0_d_392_2405" x="195.635" y="212.14" width="669.801" height="165.72" filterUnits="userSpaceOnUse" color-interpolation-filters="sRGB">
<feFlood flood-opacity="0" result="BackgroundImageFix"/>
<feColorMatrix in="SourceAlpha" type="matrix" values="0 0 0 0 0 0 0 0 0 0 0 0 0 0 0 0 0 0 127 0" result="hardAlpha"/>
<feOffset dy="3"/>
<feGaussianBlur stdDeviation="2"/>
<feComposite in2="hardAlpha" operator="out"/>
<feColorMatrix type="matrix" values="0 0 0 0 0 0 0 0 0 0 0 0 0 0 0 0 0 0 0.25 0"/>
<feBlend mode="normal" in2="BackgroundImageFix" result="effect1_dropShadow_392_2405"/>
<feBlend mode="normal" in="SourceGraphic" in2="effect1_dropShadow_392_2405" result="shape"/>
</filter>
<linearGradient id="paint0_linear_392_2405" x1="0" y1="107" x2="1061" y2="107" gradientUnits="userSpaceOnUse">
<stop stop-color="#2BB84C"/>
<stop offset="1" stop-color="#135222"/>
</linearGradient>
<linearGradient id="paint1_linear_392_2405" x1="206.5" y1="265" x2="854.5" y2="265" gradientUnits="userSpaceOnUse">
<stop stop-color="#6D4AFF"/>
<stop offset="0.5" stop-color="#C9B4FF"/>
<stop offset="1" stop-color="#6D4AFF"/>
</linearGradient>
</defs>
</svg>
