<svg width="1298" height="154" viewBox="0 0 1298 154" fill="none" xmlns="http://www.w3.org/2000/svg">
<path d="M-4.32134e-07 150.36V3.35998H70.77C84.49 3.35998 96.32 5.59998 106.26 10.08C116.34 14.56 124.11 21 129.57 29.4C135.03 37.66 137.76 47.46 137.76 58.8C137.76 70.14 135.03 79.94 129.57 88.2C124.11 96.46 116.34 102.9 106.26 107.52C96.32 112 84.49 114.24 70.77 114.24H27.51L49.56 93.03V150.36H-4.32134e-07ZM49.56 98.49L27.51 76.02H67.62C74.48 76.02 79.52 74.48 82.74 71.4C86.1 68.32 87.78 64.12 87.78 58.8C87.78 53.48 86.1 49.28 82.74 46.2C79.52 43.12 74.48 41.58 67.62 41.58H27.51L49.56 19.11V98.49ZM154.014 150.36V3.35998H222.684C245.224 3.35998 262.374 8.32998 274.134 18.27C285.894 28.21 291.774 41.72 291.774 58.8C291.774 70.14 289.044 79.94 283.584 88.2C278.124 96.32 270.354 102.55 260.274 106.89C250.334 111.23 238.504 113.4 224.784 113.4H181.524L203.574 93.03V150.36H154.014ZM242.004 150.36L205.884 96.81H258.384L294.924 150.36H242.004ZM203.574 98.49L181.524 76.02H221.634C228.494 76.02 233.534 74.48 236.754 71.4C240.114 68.32 241.794 64.12 241.794 58.8C241.794 53.48 240.114 49.28 236.754 46.2C233.534 43.12 228.494 41.58 221.634 41.58H181.524L203.574 19.11V98.49ZM387.558 153.72C375.658 153.72 364.598 151.83 354.378 148.05C344.298 144.27 335.548 138.95 328.128 132.09C320.708 125.09 314.898 116.9 310.698 107.52C306.638 98.14 304.608 87.92 304.608 76.86C304.608 65.66 306.638 55.44 310.698 46.2C314.898 36.82 320.708 28.7 328.128 21.84C335.548 14.84 344.298 9.44998 354.378 5.66998C364.598 1.88998 375.658 -1.89543e-05 387.558 -1.89543e-05C399.598 -1.89543e-05 410.658 1.88998 420.738 5.66998C430.818 9.44998 439.568 14.84 446.988 21.84C454.408 28.7 460.148 36.82 464.208 46.2C468.408 55.44 470.508 65.66 470.508 76.86C470.508 87.92 468.408 98.14 464.208 107.52C460.148 116.9 454.408 125.09 446.988 132.09C439.568 138.95 430.818 144.27 420.738 148.05C410.658 151.83 399.598 153.72 387.558 153.72ZM387.558 113.61C392.178 113.61 396.448 112.77 400.368 111.09C404.428 109.41 407.928 107.03 410.868 103.95C413.948 100.73 416.328 96.88 418.008 92.4C419.688 87.78 420.528 82.6 420.528 76.86C420.528 71.12 419.688 66.01 418.008 61.53C416.328 56.91 413.948 53.06 410.868 49.98C407.928 46.76 404.428 44.31 400.368 42.63C396.448 40.95 392.178 40.11 387.558 40.11C382.938 40.11 378.598 40.95 374.538 42.63C370.618 44.31 367.118 46.76 364.038 49.98C361.098 53.06 358.788 56.91 357.108 61.53C355.428 66.01 354.588 71.12 354.588 76.86C354.588 82.6 355.428 87.78 357.108 92.4C358.788 96.88 361.098 100.73 364.038 103.95C367.118 107.03 370.618 109.41 374.538 111.09C378.598 112.77 382.938 113.61 387.558 113.61ZM777.502 153.72C766.022 153.72 755.662 151.9 746.422 148.26C737.182 144.48 729.482 139.02 723.322 131.88L749.992 100.38C753.912 105.14 757.762 108.78 761.542 111.3C765.322 113.68 769.242 114.87 773.302 114.87C783.942 114.87 789.262 108.78 789.262 96.6V40.74H739.282V3.35998H838.192V93.66C838.192 113.82 833.012 128.87 822.652 138.81C812.292 148.75 797.242 153.72 777.502 153.72ZM860.918 150.36V3.35998H980.408V40.74H909.638V112.98H983.138V150.36H860.918ZM906.278 93.66V57.96H971.798V93.66H906.278ZM1034.14 150.36V41.79H991.087V3.35998H1126.75V41.79H1083.7V150.36H1034.14ZM1214.64 153.72C1202.74 153.72 1191.68 151.83 1181.46 148.05C1171.38 144.27 1162.63 138.95 1155.21 132.09C1147.79 125.09 1141.98 116.9 1137.78 107.52C1133.72 98.14 1131.69 87.92 1131.69 76.86C1131.69 65.66 1133.72 55.44 1137.78 46.2C1141.98 36.82 1147.79 28.7 1155.21 21.84C1162.63 14.84 1171.38 9.44998 1181.46 5.66998C1191.68 1.88998 1202.74 -1.89543e-05 1214.64 -1.89543e-05C1226.68 -1.89543e-05 1237.74 1.88998 1247.82 5.66998C1257.9 9.44998 1266.65 14.84 1274.07 21.84C1281.49 28.7 1287.23 36.82 1291.29 46.2C1295.49 55.44 1297.59 65.66 1297.59 76.86C1297.59 87.92 1295.49 98.14 1291.29 107.52C1287.23 116.9 1281.49 125.09 1274.07 132.09C1266.65 138.95 1257.9 144.27 1247.82 148.05C1237.74 151.83 1226.68 153.72 1214.64 153.72ZM1214.64 113.61C1219.26 113.61 1223.53 112.77 1227.45 111.09C1231.51 109.41 1235.01 107.03 1237.95 103.95C1241.03 100.73 1243.41 96.88 1245.09 92.4C1246.77 87.78 1247.61 82.6 1247.61 76.86C1247.61 71.12 1246.77 66.01 1245.09 61.53C1243.41 56.91 1241.03 53.06 1237.95 49.98C1235.01 46.76 1231.51 44.31 1227.45 42.63C1223.53 40.95 1219.26 40.11 1214.64 40.11C1210.02 40.11 1205.68 40.95 1201.62 42.63C1197.7 44.31 1194.2 46.76 1191.12 49.98C1188.18 53.06 1185.87 56.91 1184.19 61.53C1182.51 66.01 1181.67 71.12 1181.67 76.86C1181.67 82.6 1182.51 87.78 1184.19 92.4C1185.87 96.88 1188.18 100.73 1191.12 103.95C1194.2 107.03 1197.7 109.41 1201.62 111.09C1205.68 112.77 1210.02 113.61 1214.64 113.61Z" fill="url(#paint0_linear_1_24)"/>
<defs>
<linearGradient id="paint0_linear_1_24" x1="-11.97" y1="75.36" x2="1304.03" y2="75.36" gradientUnits="userSpaceOnUse">
<stop stop-color="#2BB84C"/>
<stop offset="1" stop-color="#135222"/>
</linearGradient>
</defs>
</svg>
