<svg width="24" height="24" viewBox="0 0 24 24" fill="none" xmlns="http://www.w3.org/2000/svg">
<path d="M23.5651 2.33893C23.8824 2.65623 23.8824 3.17067 23.5651 3.48798L21.8704 5.18266L18.6204 1.93266L20.3151 0.237976C20.6324 -0.0793254 21.1468 -0.0793251 21.4641 0.237976L23.5651 2.33893Z" fill="black"/>
<path d="M20.7214 6.33171L17.4714 3.08171L6.40024 14.1528C6.31105 14.242 6.24385 14.3508 6.20396 14.4704L4.89655 18.3926C4.79069 18.7102 5.09283 19.0124 5.41042 18.9065L9.33265 17.5991C9.45232 17.5592 9.56105 17.492 9.65024 17.4028L20.7214 6.33171Z" fill="black"/>
<path fill-rule="evenodd" clip-rule="evenodd" d="M0 21.125C0 22.4712 1.09131 23.5625 2.4375 23.5625H20.3125C21.6587 23.5625 22.75 22.4712 22.75 21.125V11.375C22.75 10.9263 22.3862 10.5625 21.9375 10.5625C21.4888 10.5625 21.125 10.9263 21.125 11.375V21.125C21.125 21.5737 20.7612 21.9375 20.3125 21.9375H2.4375C1.98877 21.9375 1.625 21.5737 1.625 21.125V3.25C1.625 2.80127 1.98877 2.4375 2.4375 2.4375H13C13.4487 2.4375 13.8125 2.07373 13.8125 1.625C13.8125 1.17627 13.4487 0.8125 13 0.8125H2.4375C1.09131 0.8125 0 1.90381 0 3.25V21.125Z" fill="black"/>
</svg>
