<svg width="22" height="19" viewBox="0 0 22 19" fill="none" xmlns="http://www.w3.org/2000/svg">
<path d="M17.875 2.02114C17.875 0.904894 18.7984 0 19.9375 0C21.0766 0 22 0.904894 22 2.02114V16.8428C22 17.9591 21.0766 18.8639 19.9375 18.8639C18.7984 18.8639 17.875 17.9591 17.875 16.8428V16.5548C14.9024 14.8823 11.7017 14.0704 8.371 13.7472L8.92762 17.4017C9.08819 18.2296 8.44032 19 7.57666 19H6.82238C6.27519 19 5.78156 18.6823 5.56304 18.1935L3.01987 13.4899C2.92721 13.4885 2.83454 13.4873 2.74188 13.4862C1.23147 13.4689 0 12.2697 0 10.7794V8.08455C0 6.59462 1.23049 5.39472 2.7391 5.37177C3.77493 5.35601 5.04039 5.32649 6.15278 5.27137C10.3376 5.06402 14.6066 4.12761 17.875 2.30811V2.02114ZM19.25 2.02114V16.8428C19.25 17.2149 19.5578 17.5165 19.9375 17.5165C20.3172 17.5165 20.625 17.2149 20.625 16.8428V2.02114C20.625 1.64906 20.3172 1.34742 19.9375 1.34742C19.5578 1.34742 19.25 1.64906 19.25 2.02114ZM17.875 3.83951C14.6515 5.46445 10.7133 6.32192 6.875 6.57905V12.2824C7.12248 12.2971 7.36855 12.3133 7.61304 12.3309C11.1446 12.586 14.6165 13.3346 17.875 15.0171V3.83951ZM5.5 12.2137V6.64879C4.56432 6.68513 3.58645 6.70647 2.76044 6.71903C1.99115 6.73073 1.375 7.342 1.375 8.08455V10.7794C1.375 11.5216 1.99037 12.1301 2.75797 12.1389C2.98917 12.1415 3.22029 12.1452 3.45134 12.1497C4.1348 12.1632 4.81767 12.1849 5.5 12.2137ZM4.59656 13.528L6.80892 17.6198L6.82238 17.6526L7.57666 17.6526L7.57283 17.6344L6.96411 13.6379C6.69581 13.6211 6.42531 13.6061 6.15278 13.5926C5.63394 13.5669 5.11522 13.5452 4.59656 13.528Z" fill="black"/>
</svg>
