<svg width="23" height="20" viewBox="0 0 23 20" fill="none" xmlns="http://www.w3.org/2000/svg">
<mask id="path-1-inside-1_472_239" fill="white">
<path d="M19.9063 4.875C19.3438 4.875 18.794 5.04178 18.3263 5.35426C17.8587 5.66673 17.4942 6.11087 17.279 6.6305C17.0637 7.15012 17.0074 7.72191 17.1171 8.27354C17.2269 8.82517 17.4977 9.33188 17.8954 9.72959C18.2931 10.1273 18.7998 10.3981 19.3515 10.5079C19.9031 10.6176 20.4749 10.5613 20.9945 10.346C21.5141 10.1308 21.9583 9.76631 22.2707 9.29865C22.5832 8.831 22.75 8.28119 22.75 7.71875C22.75 6.96454 22.4504 6.24122 21.9171 5.70792C21.3838 5.17461 20.6605 4.875 19.9063 4.875ZM19.9063 8.9375C19.6652 8.9375 19.4296 8.86602 19.2292 8.7321C19.0287 8.59819 18.8725 8.40784 18.7803 8.18515C18.688 7.96245 18.6639 7.7174 18.7109 7.48098C18.7579 7.24457 18.874 7.02741 19.0445 6.85696C19.2149 6.68652 19.4321 6.57044 19.6685 6.52342C19.9049 6.47639 20.1499 6.50053 20.3726 6.59277C20.5953 6.68502 20.7857 6.84123 20.9196 7.04165C21.0535 7.24207 21.125 7.47771 21.125 7.71875C21.125 8.04198 20.9966 8.35198 20.768 8.58054C20.5395 8.8091 20.2295 8.9375 19.9063 8.9375ZM5.6875 7.71875C5.6875 7.15631 5.52072 6.6065 5.20824 6.13885C4.89577 5.6712 4.45163 5.3067 3.93201 5.09147C3.41238 4.87623 2.8406 4.81992 2.28896 4.92964C1.73733 5.03937 1.23062 5.31021 0.832916 5.70792C0.435211 6.10562 0.16437 6.61233 0.0546431 7.16396C-0.0550836 7.7156 0.00123215 8.28738 0.216469 8.80701C0.431706 9.32663 0.796196 9.77077 1.26385 10.0832C1.7315 10.3957 2.28131 10.5625 2.84375 10.5625C3.59796 10.5625 4.32128 10.2629 4.85459 9.72959C5.38789 9.19628 5.6875 8.47296 5.6875 7.71875ZM2.84375 8.9375C2.60271 8.9375 2.36707 8.86602 2.16665 8.7321C1.96623 8.59819 1.81002 8.40784 1.71777 8.18515C1.62553 7.96245 1.60139 7.7174 1.64842 7.48098C1.69544 7.24457 1.81152 7.02741 1.98196 6.85696C2.15241 6.68652 2.36957 6.57044 2.60599 6.52342C2.8424 6.47639 3.08745 6.50053 3.31015 6.59277C3.53284 6.68502 3.72319 6.84123 3.8571 7.04165C3.99102 7.24207 4.0625 7.47771 4.0625 7.71875C4.0625 8.04198 3.9341 8.35198 3.70554 8.58054C3.47698 8.8091 3.16698 8.9375 2.84375 8.9375ZM7.71875 5.6875C8.28119 5.6875 8.831 5.52072 9.29865 5.20824C9.76631 4.89577 10.1308 4.45163 10.346 3.93201C10.5613 3.41238 10.6176 2.8406 10.5079 2.28896C10.3981 1.73733 10.1273 1.23062 9.72959 0.832916C9.33188 0.435211 8.82517 0.16437 8.27354 0.0546431C7.72191 -0.0550836 7.15012 0.00123215 6.6305 0.216469C6.11087 0.431706 5.66673 0.796196 5.35426 1.26385C5.04178 1.7315 4.875 2.28131 4.875 2.84375C4.875 3.59796 5.17461 4.32128 5.70792 4.85459C6.24122 5.38789 6.96454 5.6875 7.71875 5.6875ZM7.71875 1.625C7.9598 1.625 8.19543 1.69648 8.39585 1.8304C8.59628 1.96432 8.75249 2.15466 8.84473 2.37736C8.93697 2.60005 8.96111 2.8451 8.91408 3.08152C8.86706 3.31793 8.75098 3.53509 8.58054 3.70554C8.41009 3.87598 8.19293 3.99206 7.95652 4.03908C7.7201 4.08611 7.47505 4.06197 7.25236 3.96973C7.02966 3.87749 6.83932 3.72127 6.7054 3.52085C6.57148 3.32043 6.5 3.0848 6.5 2.84375C6.5 2.52052 6.62841 2.21052 6.85697 1.98196C7.08553 1.7534 7.39552 1.625 7.71875 1.625ZM15.0313 5.6875C15.5937 5.6875 16.1435 5.52072 16.6112 5.20824C17.0788 4.89577 17.4433 4.45163 17.6585 3.93201C17.8738 3.41238 17.9301 2.8406 17.8204 2.28896C17.7106 1.73733 17.4398 1.23062 17.0421 0.832916C16.6444 0.435211 16.1377 0.16437 15.586 0.0546431C15.0344 -0.0550836 14.4626 0.00123215 13.943 0.216469C13.4234 0.431706 12.9792 0.796196 12.6668 1.26385C12.3543 1.7315 12.1875 2.28131 12.1875 2.84375C12.1875 3.59796 12.4871 4.32128 13.0204 4.85459C13.5537 5.38789 14.277 5.6875 15.0313 5.6875ZM15.0313 1.625C15.2723 1.625 15.5079 1.69648 15.7084 1.8304C15.9088 1.96432 16.065 2.15466 16.1572 2.37736C16.2495 2.60005 16.2736 2.8451 16.2266 3.08152C16.1796 3.31793 16.0635 3.53509 15.893 3.70554C15.7226 3.87598 15.5054 3.99206 15.269 4.03908C15.0326 4.08611 14.7876 4.06197 14.5649 3.96973C14.3422 3.87749 14.1518 3.72127 14.0179 3.52085C13.884 3.32043 13.8125 3.0848 13.8125 2.84375C13.8125 2.52052 13.9409 2.21052 14.1695 1.98196C14.398 1.7534 14.708 1.625 15.0313 1.625ZM17.3794 11.8686C16.9667 11.6409 16.6029 11.3341 16.3089 10.9657C16.0149 10.5973 15.7965 10.1745 15.666 9.72156C15.3959 8.79252 14.8315 7.97625 14.0577 7.39542C13.2839 6.81459 12.3425 6.50058 11.375 6.50058C10.4075 6.50058 9.46608 6.81459 8.6923 7.39542C7.91851 7.97625 7.35414 8.79252 7.08399 9.72156C6.82303 10.6329 6.21124 11.4036 5.38281 11.8645C4.58811 12.2945 3.95944 12.9772 3.59626 13.8046C3.23307 14.632 3.15609 15.5569 3.37749 16.4329C3.59889 17.309 4.10603 18.0862 4.81871 18.6417C5.53138 19.1972 6.40891 19.4992 7.3125 19.5C7.85399 19.5016 8.39019 19.3934 8.88875 19.1821C10.4783 18.5266 12.2626 18.5266 13.8521 19.1821C14.8149 19.6008 15.9024 19.6306 16.8866 19.2651C17.8708 18.8996 18.6753 18.1673 19.1314 17.2217C19.5876 16.2761 19.6599 15.1906 19.3333 14.1928C19.0066 13.195 18.3064 12.3624 17.3794 11.8696V11.8686ZM15.4375 17.875C15.1076 17.8753 14.7811 17.8086 14.4777 17.679C12.4877 16.857 10.2531 16.857 8.26313 17.679C7.68483 17.928 7.03261 17.9435 6.44309 17.7224C5.85358 17.5013 5.3725 17.0606 5.10062 16.4927C4.82875 15.9248 4.78718 15.2737 4.98461 14.6759C5.18204 14.078 5.60316 13.5797 6.15977 13.2854C6.75821 12.9549 7.28565 12.5097 7.71191 11.9752C8.13817 11.4407 8.4549 10.8274 8.64399 10.1705C8.81569 9.57896 9.17479 9.05919 9.6673 8.68932C10.1598 8.31945 10.7591 8.11948 11.375 8.11948C11.9909 8.11948 12.5902 8.31945 13.0827 8.68932C13.5752 9.05919 13.9343 9.57896 14.106 10.1705C14.2957 10.8287 14.6134 11.443 15.0409 11.9782C15.4684 12.5134 15.9973 12.959 16.5973 13.2895C17.0766 13.5465 17.4561 13.9563 17.6755 14.4539C17.8949 14.9514 17.9417 15.508 17.8084 16.0352C17.675 16.5624 17.3692 17.0298 16.9396 17.3632C16.51 17.6966 15.9813 17.8767 15.4375 17.875Z"/>
</mask>
<path d="M19.9063 4.875C19.3438 4.875 18.794 5.04178 18.3263 5.35426C17.8587 5.66673 17.4942 6.11087 17.279 6.6305C17.0637 7.15012 17.0074 7.72191 17.1171 8.27354C17.2269 8.82517 17.4977 9.33188 17.8954 9.72959C18.2931 10.1273 18.7998 10.3981 19.3515 10.5079C19.9031 10.6176 20.4749 10.5613 20.9945 10.346C21.5141 10.1308 21.9583 9.76631 22.2707 9.29865C22.5832 8.831 22.75 8.28119 22.75 7.71875C22.75 6.96454 22.4504 6.24122 21.9171 5.70792C21.3838 5.17461 20.6605 4.875 19.9063 4.875ZM19.9063 8.9375C19.6652 8.9375 19.4296 8.86602 19.2292 8.7321C19.0287 8.59819 18.8725 8.40784 18.7803 8.18515C18.688 7.96245 18.6639 7.7174 18.7109 7.48098C18.7579 7.24457 18.874 7.02741 19.0445 6.85696C19.2149 6.68652 19.4321 6.57044 19.6685 6.52342C19.9049 6.47639 20.1499 6.50053 20.3726 6.59277C20.5953 6.68502 20.7857 6.84123 20.9196 7.04165C21.0535 7.24207 21.125 7.47771 21.125 7.71875C21.125 8.04198 20.9966 8.35198 20.768 8.58054C20.5395 8.8091 20.2295 8.9375 19.9063 8.9375ZM5.6875 7.71875C5.6875 7.15631 5.52072 6.6065 5.20824 6.13885C4.89577 5.6712 4.45163 5.3067 3.93201 5.09147C3.41238 4.87623 2.8406 4.81992 2.28896 4.92964C1.73733 5.03937 1.23062 5.31021 0.832916 5.70792C0.435211 6.10562 0.16437 6.61233 0.0546431 7.16396C-0.0550836 7.7156 0.00123215 8.28738 0.216469 8.80701C0.431706 9.32663 0.796196 9.77077 1.26385 10.0832C1.7315 10.3957 2.28131 10.5625 2.84375 10.5625C3.59796 10.5625 4.32128 10.2629 4.85459 9.72959C5.38789 9.19628 5.6875 8.47296 5.6875 7.71875ZM2.84375 8.9375C2.60271 8.9375 2.36707 8.86602 2.16665 8.7321C1.96623 8.59819 1.81002 8.40784 1.71777 8.18515C1.62553 7.96245 1.60139 7.7174 1.64842 7.48098C1.69544 7.24457 1.81152 7.02741 1.98196 6.85696C2.15241 6.68652 2.36957 6.57044 2.60599 6.52342C2.8424 6.47639 3.08745 6.50053 3.31015 6.59277C3.53284 6.68502 3.72319 6.84123 3.8571 7.04165C3.99102 7.24207 4.0625 7.47771 4.0625 7.71875C4.0625 8.04198 3.9341 8.35198 3.70554 8.58054C3.47698 8.8091 3.16698 8.9375 2.84375 8.9375ZM7.71875 5.6875C8.28119 5.6875 8.831 5.52072 9.29865 5.20824C9.76631 4.89577 10.1308 4.45163 10.346 3.93201C10.5613 3.41238 10.6176 2.8406 10.5079 2.28896C10.3981 1.73733 10.1273 1.23062 9.72959 0.832916C9.33188 0.435211 8.82517 0.16437 8.27354 0.0546431C7.72191 -0.0550836 7.15012 0.00123215 6.6305 0.216469C6.11087 0.431706 5.66673 0.796196 5.35426 1.26385C5.04178 1.7315 4.875 2.28131 4.875 2.84375C4.875 3.59796 5.17461 4.32128 5.70792 4.85459C6.24122 5.38789 6.96454 5.6875 7.71875 5.6875ZM7.71875 1.625C7.9598 1.625 8.19543 1.69648 8.39585 1.8304C8.59628 1.96432 8.75249 2.15466 8.84473 2.37736C8.93697 2.60005 8.96111 2.8451 8.91408 3.08152C8.86706 3.31793 8.75098 3.53509 8.58054 3.70554C8.41009 3.87598 8.19293 3.99206 7.95652 4.03908C7.7201 4.08611 7.47505 4.06197 7.25236 3.96973C7.02966 3.87749 6.83932 3.72127 6.7054 3.52085C6.57148 3.32043 6.5 3.0848 6.5 2.84375C6.5 2.52052 6.62841 2.21052 6.85697 1.98196C7.08553 1.7534 7.39552 1.625 7.71875 1.625ZM15.0313 5.6875C15.5937 5.6875 16.1435 5.52072 16.6112 5.20824C17.0788 4.89577 17.4433 4.45163 17.6585 3.93201C17.8738 3.41238 17.9301 2.8406 17.8204 2.28896C17.7106 1.73733 17.4398 1.23062 17.0421 0.832916C16.6444 0.435211 16.1377 0.16437 15.586 0.0546431C15.0344 -0.0550836 14.4626 0.00123215 13.943 0.216469C13.4234 0.431706 12.9792 0.796196 12.6668 1.26385C12.3543 1.7315 12.1875 2.28131 12.1875 2.84375C12.1875 3.59796 12.4871 4.32128 13.0204 4.85459C13.5537 5.38789 14.277 5.6875 15.0313 5.6875ZM15.0313 1.625C15.2723 1.625 15.5079 1.69648 15.7084 1.8304C15.9088 1.96432 16.065 2.15466 16.1572 2.37736C16.2495 2.60005 16.2736 2.8451 16.2266 3.08152C16.1796 3.31793 16.0635 3.53509 15.893 3.70554C15.7226 3.87598 15.5054 3.99206 15.269 4.03908C15.0326 4.08611 14.7876 4.06197 14.5649 3.96973C14.3422 3.87749 14.1518 3.72127 14.0179 3.52085C13.884 3.32043 13.8125 3.0848 13.8125 2.84375C13.8125 2.52052 13.9409 2.21052 14.1695 1.98196C14.398 1.7534 14.708 1.625 15.0313 1.625ZM17.3794 11.8686C16.9667 11.6409 16.6029 11.3341 16.3089 10.9657C16.0149 10.5973 15.7965 10.1745 15.666 9.72156C15.3959 8.79252 14.8315 7.97625 14.0577 7.39542C13.2839 6.81459 12.3425 6.50058 11.375 6.50058C10.4075 6.50058 9.46608 6.81459 8.6923 7.39542C7.91851 7.97625 7.35414 8.79252 7.08399 9.72156C6.82303 10.6329 6.21124 11.4036 5.38281 11.8645C4.58811 12.2945 3.95944 12.9772 3.59626 13.8046C3.23307 14.632 3.15609 15.5569 3.37749 16.4329C3.59889 17.309 4.10603 18.0862 4.81871 18.6417C5.53138 19.1972 6.40891 19.4992 7.3125 19.5C7.85399 19.5016 8.39019 19.3934 8.88875 19.1821C10.4783 18.5266 12.2626 18.5266 13.8521 19.1821C14.8149 19.6008 15.9024 19.6306 16.8866 19.2651C17.8708 18.8996 18.6753 18.1673 19.1314 17.2217C19.5876 16.2761 19.6599 15.1906 19.3333 14.1928C19.0066 13.195 18.3064 12.3624 17.3794 11.8696V11.8686ZM15.4375 17.875C15.1076 17.8753 14.7811 17.8086 14.4777 17.679C12.4877 16.857 10.2531 16.857 8.26313 17.679C7.68483 17.928 7.03261 17.9435 6.44309 17.7224C5.85358 17.5013 5.3725 17.0606 5.10062 16.4927C4.82875 15.9248 4.78718 15.2737 4.98461 14.6759C5.18204 14.078 5.60316 13.5797 6.15977 13.2854C6.75821 12.9549 7.28565 12.5097 7.71191 11.9752C8.13817 11.4407 8.4549 10.8274 8.64399 10.1705C8.81569 9.57896 9.17479 9.05919 9.6673 8.68932C10.1598 8.31945 10.7591 8.11948 11.375 8.11948C11.9909 8.11948 12.5902 8.31945 13.0827 8.68932C13.5752 9.05919 13.9343 9.57896 14.106 10.1705C14.2957 10.8287 14.6134 11.443 15.0409 11.9782C15.4684 12.5134 15.9973 12.959 16.5973 13.2895C17.0766 13.5465 17.4561 13.9563 17.6755 14.4539C17.8949 14.9514 17.9417 15.508 17.8084 16.0352C17.675 16.5624 17.3692 17.0298 16.9396 17.3632C16.51 17.6966 15.9813 17.8767 15.4375 17.875Z" stroke="#0A0A0A" stroke-width="4" mask="url(#path-1-inside-1_472_239)"/>
</svg>
